<svg xmlns="http://www.w3.org/2000/svg" enable-background="new 238.202 438.5052 1438.8525 734.7734" version="1.1" viewBox="238.202 438.5052 1438.8525 734.7734">
	<path d="m754.88 451.79c13.98-1.53 28.12-1.4 42.13-0.23-29.74 0.79-59.4 3.55-89 6.46-5.68 0.44-11.3 1.8-17.02 1.61 21.2-3.34 42.52-5.86 63.89-7.84z"/>
	<path d="m802.35 451.5c38.83 0.04 77.69 3.95 116.03 10.21 3.54 0.65 7.13 1.1 10.62 2.07-33.33-3.2-66.56-7.61-99.97-9.98-8.9-0.75-17.8-1.42-26.68-2.3z"/>
	<path d="m769.68 463.71c21.3-2.99 42.88-2.18 64.33-2.32 22.32 0.08 44.65 0.59 66.95 1.61 16.48 1.18 33.5 2.3 48.72 9.35 9.26 4.31 17.58 10.32 26.07 15.94 13.49 9.08 26.52 18.82 39.61 28.46 6.17 0.36 12.37-1.06 18.55-1.45 26.37-2.55 52.79-4.6 79.25-5.99 27.59-1.43 55.23-0.25 82.84-0.49 10.25-0.03 20.49-0.18 30.72 0.44l0.01 0.53c-24.2-0.31-48.34 1.87-72.52 2.67-26.07 0.67-52.13 2.15-78.13 4.3-61.08 4.5-122.08 10.14-183.06 15.87-8.5 0.51-16.75 2.78-25.15 3.99-39.03 7.39-78.1 14.49-117.13 21.87-12.21 1.94-24.13 5.29-36.16 8.05-45.29 11.3-90.43 23.15-135.61 34.84-7.21-22.8-12.84-46.15-16.27-69.84-0.67-6.29-1.44-13.2 1.97-18.89 2.33-5.01 7.8-7.08 12.4-9.47 17.86-8.03 36.68-13.84 55.76-18.17 45.61-7.13 91.02-15.65 136.85-21.3m11.32 1.9c-45.09 6.18-90.01 13.49-134.93 20.78-18.87 3.7-37.16 9.92-55.2 16.47-6.51 2.89-13.72 5-19 9.98-3.39 5-2.95 11.46-2.56 17.21 2.8 21.9 8.86 43.18 14.66 64.43 38.72-10.7 77.38-21.71 116.44-31.18 56.39-14.44 114.33-21.28 171.87-29.34-2.28-3.98-6.17-6.66-9.3101-9.91-19.24-18.65-41.17-34.16-61.87-51.07 5.85 3.69 11.25 8.05 16.89 12.06 8.66 6.63 17.66 12.86 25.75 20.21 10.48 9.45 21.18 18.68 31.27 28.55 18.27-2.64 36.7-4.08 54.97-6.77 27.43-3.32 54.84-6.86 82.34-9.45-1.02-0.96-2.09-1.84-3.19-2.66-12.01-8.43-24.11-16.72-36.54-24.51-8.94-5.35-17.03-12.13-26.57-16.43-13.61-5.65-28.54-6.14-43.04-7.13-26.64-1.31-53.3-2.2-79.97-2.69-14.01-0.08-28.12-0.85-42.01 1.45z"/>
	<path d="m645.48 465.74c6.89-0.59 13.65-2.51 20.58-2.47-24.08 4.01-48.2 7.83-72.17 12.47-8.94 1.86-17.91 3.57-26.91 5.12 3.67-1.56 7.67-2.06 11.52-2.99 22.15-4.96 44.5-8.98 66.98-12.13z"/>
	<path d="m738.4 497.48c11.07-4.98 21.97-10.47 33.48-14.38-16.93 8-33.91 16.02-49.86 25.88-7.74 4.72-14.56 10.75-21.33 16.73-9.65 8.66-19.11 17.52-28.39 26.58-2.44 2.34-4.66 4.9901-7.56 6.79 6.05-7.94 13.31-14.91 20-22.32 6.97-7.37 14.19-14.51 21.92-21.08 9.35-8 20.81-12.81 31.74-18.2z"/>
	<path d="m513.82 497.82c11.07-6.62 23.65-10.2 36.2-12.75-3.05 1.42-6.3 2.32-9.45 3.46-19.18 6.26-36.5 16.89-53.54 27.45 8.23-6.99 17.55-12.6 26.79-18.16z"/>
	<path d="m733.46 509.62c3.69-1.82 7.49-3.47 11.47-4.58-7.66 3.83-15.46 7.49-22.6 12.25-9.64 6.88-17.44 15.91-26.44 23.52 5.95-7.3 12.62-14.02 19.53-20.41 5.18-4.85 11.76-7.67 18.04-10.78z"/>
	<path d="m1250.9 509.43c14.85-1.07 29.75-0.32 44.6 0.25 14.58 0.56 29.17 1.73 43.56 4.16 13.37 2.49 25.07 10.18 35.33 18.78 14.55 12.7 26.94 27.94 36 45.01 5.22 9.69 10.42 19.51 13.78 30.03 1.2401 4.3 3 9.28 0.3101 13.4-1.08-5.32-2.86-10.8-7.15-14.42-7.03-6.32-16.84-8.45-26.07-8.06-2.5901-18.88-11.9-36.3-24.3-50.56-8.63-9.5-18.06-18.8-29.98-24.03-22.52-10.27-47.58-12.53-71.98-14.09-4.7002-0.44-9.4401 0.25-14.1-0.47z"/>
	<path d="m512.58 515.63c7.09-1.57 17.19 0.34 19.61 8.2 8 24.63 15 49.56 22.45 74.36 1.11 4.14 3.8 7.95 3.9 12.3-1.43 1.65-4.31 1.57-5.18 3.89-10.49 17.83-18.92 37.76-19.14 58.76-0.6299 28.97 0.52 57.94 1.16 86.89 0.21 1.8199-1.08 3.25-2.41 4.28-0.62-25.43-0.53-50.88-0.81-76.31 0.13-10.39-0.93-20.85 0.82-31.16 3-15.5 9.99-29.8 17.37-43.61-11.47 2.18-23.03 3.87-34.38 6.66-41.45 9.85-82.76 20.29-123.99 31 2.79-2.84 5.15-6.79 9.35-7.57 40.52-9.81 80.96-19.94 121.5-29.69-0.06-0.32-0.18-0.97-0.24-1.29-3.9301-2.08-8.04-4.27-12.57-4.47-14.29-1-28.71 3.67-42.84-0.06-3.15-0.84-7.7-1.98-8.17-5.81-0.57-2.45 2.22-3.45 4.05-4.04 6.5-1.73 13.36-1.1 19.98-0.58 16.9 1.43 32.57 8.58 47.56 16.05 1.76 1.06 3.82 0.26 5.6801-0.01 5.95-1.28 11.99-2.09 17.9-3.55-0.32-1.41-0.66-2.8-0.99-4.18-6.31 0.82-12.61 2.29-18.99 2.14-10.25-5.92-20-12.68-29.91-19.12-7.98-3.41-16.93-1.77-25.34-1.67-8.9 0.14-16.41 5.33-24.26 8.81 0.96-3.81 4.84-5.62 8.15-7.0099 8.67-3.16 17.96-4.39 27.16-4.4301 6.34 0.13 13.02 0.69 18.53 4.13 9 5.53 17.55 11.76 26.23 17.77 1.31 1.26 3.11 0.56 4.68 0.33 4.23-0.86 8.49-1.62 12.7-2.62-1.68-8.55-4.37-16.87-6.75-25.25-3.03-10.86-6.32-21.65-9.79-32.38-2.37-6.53-4.23-13.3-7.56-19.42-1.7599-3.33-5.21-5.74-8.99-6-6.87-0.5099-13.38 2.1801-19.86 4.04-14.1 3.82-25.27 13.8-36 23.21-11.51 10.46-22.27 21.73-32.65 33.31-5.83 7.33-10.81 15.3-15.83 23.2-0.92 1.1-1.41 2.96-3.09 3.09 4.28-8.26 9.27-16.13 14.03-24.1 7.58-13.27 18.94-23.75 29.84-34.24 8.87-8.2 18.03-16.18 28.14-22.83 8.7699-5.6701 18.98-8.3401 28.95-11.02z"/>
	<path d="m468.65 530.37c1.35-1.96 3.27-3.43 5.34-4.54-1.42 1.87-3.12 3.63-5.34 4.54z"/>
	<path d="m465.97 531.96c0.61-0.36 1.82-1.06 2.43-1.42-0.92 1.35-2.04 2.56-3.21 3.69-23.25 21.14-41.24 47.46-55.83 75.13 0.81-0.43 2.45-1.28 3.26-1.71-1.01 2.04-2.13 4.0699-3.71 5.73 0.36-1.29 0.74-2.58 1.14-3.85-0.56 0.0699-1.68 0.2-2.24 0.27 14.7-28.97 32.98-56.89 58.16-77.84z"/>
	<path d="m1488.9 539.19c24-1.4 48.14-2.07 72.13-0.03 12.72 1.47 25.71 3.04 37.52 8.31 4.8401 2.08 9.13 5.32 12.65 9.23-0.59 0.14-1.78 0.43-2.37 0.57 2.13 1.61 4.24 3.27 6.35 4.95 0-0.6299 0.01-1.8799 0.01-2.5099 5.25 4.58 9.35 10.57 11.67 17.15-2.03-3.14-3.92-6.41-6.62-9.03 0.4 6.04 5.03 10.51 6.63 16.18-3.47-4.18-6.35-9.6-11.97-11.18-4.12-1.34-8.29 1.2-10.71 4.42-4.7899 6.38-6.47 14.41-7.6799 22.14 2.51-3.64 4.74-8.49 9.64-9.21 4.98-0.24 8.23 4.47 10.06 8.52 4.25 10.11 4.4 21.91 0.65 32.19-1.74 4.35-4.61 9.84-9.9501 9.97-3.48 0.35-5.7699-2.52-7.8999-4.77 2.5699 8.33 5.3199 16.96 11.32 23.53 2.64 2.94 6.49 5.42 10.61 4.7 1.85-0.5 3.55-1.42 5.35-2.1-1.73 2.53-3.98 4.6201-6.13 6.78 3.0601-0.73 5.6801-2.46 8.26-4.19-1.7899 3.79-4.74 7.12-8.5 9.02-4.1799 1.99-9.2 0.7-12.68-2.09-6.78-5.21-10.34-13.23-13.83-20.76-0.1 3.86 1.05 8.07-0.4299 11.71-6.41 5.18-14.7 6.99-22.13 10.18-0.71 2.26-0.77 4.66-1.13 7-0.52-0.13-1.5699-0.4-2.09-0.54-0.79-1.58-0.7101-3.4-1.4501-4.98-8.7 2.84-17.47 5.45-26.22 8.06 12.94-0.02 25.9-1.23 38.82 0.03 6.4399 1.13 12.3 4.42 17.66 8.05 8.5701 5.96 16.17 13.45 21.8 22.28 6.41 10.46 8.9299 22.62 12.22 34.28 0.61-30.46 2.76-60.87 3.34-91.33-1.25 1.77-2.1699 3.75-3.38 5.55 4.8301-12.55 6.64-26.15 5.63-39.54-1.9099 2.58-1.0399 6.23-1.48 9.27-0.0599 9.63-0.01 20.39-6.53 28.19 1.03-3.57 2.6101-6.96 3.4501-10.58 1.54-6.41 1.87-13.02 2.54-19.56 0.75-6.89-0.6801-13.73-1.3301-20.57-0.66-6.3-2.26-12.43-3.5599-18.6 3.85 8.26 3.36 17.79 6.51 26.29 0.23-10.93-2.9701-21.56-5.4801-32.09 4.92 13.75 8.2201 28.23 7.9801 42.92 0.2599 8.05-1.8 15.95-1.5 24-0.0801 13.34-1.04 26.65-0.7301 40 0.3601 20.5 0.63 41.05 2.1801 61.48-2.3101-0.77-4.53-1.73-6.85-2.4-0.63 2.86-3.01 4.86-5.5701 5.98-1.59-10.14-3.96-20.15-6.63-30.06-2.84-10.41-9.8199-19.42-18.87-25.21-7.14-4.5-15.03-8.06-23.36-9.62-12.25-1.4-24.6-0.09-36.83 0.86-19.74 1.53-39.28 4.73-58.89 7.24-3.2-11.25-7.34-22.26-12.74-32.64-3.49-6.5-7.6801-12.98-14.05-16.99-8.1899-5.37-18.19-6.53-27.74-6.9-2.39-8.17-5-16.48-9.78-23.61-2.47-3.72-7.08-6.92-11.68-5.32-5.4301 1.99-8.63 7.31-11.08 12.23-5.4801 12.36-4.4401 26.18-4.1801 39.34-9.9301 1.05-19.45 4.61-28.3 9.12-8.9099 4.2-15.95 11.51-21.73 19.33-4.0499 5.16-6 11.56-7.1 17.93-2.01 9.96-1.35 20.67-5.9399 29.98-3.4401 7.18-10.86 10.97-17.69 14.3-21.52 9.88-44.46 16.06-67.03 23.01-19.17 5.43-37.79 12.55-56.37 19.7-18.06 7.23-36.08 14.67-53.35 23.65-6.25 3.54-12.94 6.77-17.87 12.12-1.6801 1.5-1.8199 4.5 0.48 5.52 6.36 3.56 14.08 2.66 21.1 2.44 12.1-0.59 23.85-3.85 35.85-5.2-18.88 5.15-37.17 13.1-53.16 24.47-12.27 9.5-20.29 23.26-27.01 37-6.0701 12.84-10.79 26.3-14.6 39.98-12.08-2.94-24.1-6.14-36.2-9.02-3.34 2.54-7.46 3.53-11.33 4.96-18.9 6.61-37.8 13.22-56.52 20.34-15.6 6.25-30.24 14.64-44.3 23.79-3.41 2.85-6.02 6.57-8.51 10.24 1.4 1.51 3.3 2.07 5.33 1.73 20.1-1.86 40-5.34 59.95-8.3 26.09-4.1299 52.13-8.53 78.19-12.82 16.32-2.98 32.75-5.35 48.99-8.79 34.57-6.76 68.75-15.33 102.85-24.11 10.09-2.33 19.97-5.71 30.31-6.88 24.57-3.16 49.38-3.75 74.13-3.81 1.8199 0.02 3.63-0.35 5.34-1.04-1.15-3.27-3.9501-5.37-6.36-7.64 5.7899-0.25 11.58-0.67 17.31-1.63-0.89-4.1-4.64-6.51-7.2799-9.44 7.2999-0.1 14.61-0.56 21.92-0.67 1.17 3.32 1.65 7.41 4.8201 9.56 0.8999 0.58 2.73 1.27 3-0.4 0.09-2.86-1.3-5.48-2.0901-8.15 4.7001 0.46 10.15 2.21 14.41-0.61-0.65-3.19-2.8-5.67-4.24-8.49 7.08-1.13 15.3-2.01 21.45 2.46-0.34 2.04-0.7899 4.06-0.7999 6.15 0.58 0.15 1.73 0.46 2.2999 0.61 0.51-4.07-1.1799-7.87-2.8199-11.47 2.11 1.16 4.26 3.01 6.86 2.45 2.8-0.62 5.9-2.16 6.85-5.07 0.53-2.66-1.72-4.64-2.89-6.74 9.03 1.15 18.07 2.43 27.14 3.33 3.3301-1.31 7.35-2.63 9.2001-5.93-1.12-1.03-2.3-1.97-3.3201-3.06 8.03-3.3701 18.94-5.2 25.35 2.22 1.9-0.77 4.01-1.38 5.4801-2.91 0.6-1.26-0.2001-2.47-0.75-3.54-1.4801-2.63-3.01-5.24-4.16-8.02 6.34-0.39 12.75-0.57 19.06 0.31 4.49 0.75 7.51 4.44 10.06 7.9 1.21-2.22 3.15-4.41 3.01-7.08-0.9401-3.91-4.1901-6.61-6.63-9.59 5.97-2.5 12.86-1.52 18.89 0.33 3.9199 1.08 6 4.71 8.73 7.4 0.83-4.7-0.35-9.42 0.0699-14.12 5.14-2.13 10.99-3.71 16.39-1.46 3.13 1.07 4.8301 4.07 6.77 6.53 0.39-5.16 0.52-10.95-3.63-14.74 6.9401-1.4 14.98-1.32 20.91 3.09 1.49 1.02 3.03 1.97 4.62 2.89-0.0701-5.02-2.62-9.42-5.3101-13.46 7.65-5.23 16.27 0.7 23.5 3.72 1.7101-4.5 0.7201-9.31-1.26-13.53 6.24 0.29 13.25-0.64 18.7 3.08 3.49 2.54 2.27 7.22 1.63 10.81 3.1-1.93 5.95-4.66 9.74-5.12-0.73 5.54-4.97 9.61-8.87 13.21-9.42 8.22-20.18 14.71-30.95 20.98-6.7 3.66-13.16 7.85-20.21 10.82 3.45-3.27 7.6801-5.57 11.05-8.94-7.5901 1.93-12.57 8.92-20.17 10.8-3.29 0.96-6.98 0.16-9.98 2.01-6.11 3.14-11.73 7.2-18.05 9.93-1.98 0.96-4.1899 0.59-6.27 0.92-4.37 2.51-7.5099 7.11-12.61 8.3101-3.39 1.08-6.8199-0.17-9.9199-1.46-8.13 8.08-19.4 12.97-30.88 13.14-4.55 2.77-9 5.97-14.2 7.37-4.49 1.04-8.84-0.81-12.76-2.79-4.6399 3.76-9.59 7.1-14.64 10.27-3.14 1.94-6.8501 3.37-10.58 2.84-2.1699-0.38-3.9199-1.76-5.84-2.6801-5.99 4.2401-12.22 8.13-18.59 11.76-3.05 1.7-6.67 3.15-10.17 2.05-2.42-0.71-3.96-2.8-5.62-4.52-2.9301 2.98-4.72 7.25-8.72 9.01-5.1901 2.41-10.07 6.55-16.09 6.24-4.1699-0.2-7.3899-3.09-10.14-5.91-4.88 5.54-11.16 9.6801-17.98 12.41-6.2699 1.34-12.65-0.6-18.76-1.9-11.3-2.98-22.58-6.3-34.21-7.72-12.44-1.52-24.74 1.74-36.98 3.47-56.78 10.52-113.14 23.19-169.44 36.01-19.3 5.35-39.34 7.22-59.24 8.82-15.45 0.87-31.01 1.62-46.41-0.32-5.4-0.86-11.18-1.83-15.53-5.38-2.47-1.97-2.47-5.65-0.47-7.93 5.72-7.46 14.19-12.06 22.05-16.91 30.51-17.48 63.1-30.93 95.52-44.39 1.42-5.7 1.29-11.82 2.49-17.63 3.36-20.27 8.6-40.77 19.69-58.3 9.5599-15.38 26.11-24.1 41.42-32.71 38.72-20.44 79.85-35.75 120.8-51.02 20.82-7.59 41.71-15 62.51-22.63 4.89-2.05 10.16-3.25 14.7-6.06-63.42 16.84-126.81 33.99-191 47.69-11.61 2.19-23.22 4.63-35.01 5.53-3.24 0.22-6.8099 0.18-9.3999-2.05-9.3401-7.47-16.21-17.47-22.48-27.53-0.96 17.67-6.33 35.22-16.45 49.82-9.53 13.96-23.33 25.24-39.46 30.59-19.3 6.72-41.47 4.11-58.85-6.56-17.98-10.77-30.96-28.81-37.29-48.63-1.16-4.61-2.7401-9.27-2.69-14.04 3.7 20.93 14.81 40.85 31.78 53.88 14.25 11.16 32.93 16.68 50.94 14.29 14.5-1.65 28.17-8.41 38.93-18.16 15.66-14.1 25.42-34.2 28.02-55.01 2.87-19.55-0.9401-39.76-9.65-57.4 0.83 0.15 2.49 0.44 3.3201 0.59-2.4701-5.48-6.41-10.08-9.73-15.02 4.73 4.34 8.64 9.49 12.69 14.45-0.67 0.72-1.3101 1.46-1.9401 2.21 6.0801 12.12 9.75 25.52 10.17 39.1-0.27 2.7401-1.03 5.45-0.6801 8.2401 1.54-1.39 0.6801-3.72 1.03-5.51 1.89 0.98 2.4501 3.11 3.25 4.92 3.89 9.6 11.17 18 20.64 22.39 2.71 1.3 5.8101 0.97 8.73 0.83 12.15-1.0601 23.96-4.2401 35.82-6.9301 41.45-10.28 82.35-22.61 123.23-34.94 26.73-8.2599 53.47-16.51 80.09-25.14 2.52-10.71 4.2001-21.78 8.98-31.8 5.9601-12.92 17.06-22.63 28.83-30.2 6.3999-4.22 13.36-7.5 20.4-10.53 2.54-0.95 3.65-3.67 4.13-6.14 1.2201-6.41 0.79-13.21 3.5901-19.25 3.1599-6.68 8.48-12.89 15.74-15.14 6.25-1.52 13.22 0.32 17.9 4.7599 6.3899 6.02 10.38 13.97 14.59 21.55 10.89 1.91 21.97 4.46 31.51 10.29 5.22 3.15 8.35 8.55 11.33 13.68 6.22 10.9 11.45 22.32 16.43 33.83 12.14-0.55 24.31-0.88 36.43-1.89 14.79-3.13 29.38-7.16 43.91-11.35-2.7-11.09-8.17-21.31-14.67-30.61-4.5599-6.36-9.49-12.7-16.26-16.82-15.03-9.35-32.6-13.3-49.81-16.4-11.76-2.16-23.72-2.74-35.59-4-0.6901-1.31-1.36-2.62-1.92-3.95 23.06 0.46 46.23 4.1 68.03 11.77 17.76 6.27 34.39 16.96 45.45 32.44 5.42 7.6 8.91 16.58 9.54 25.93 6.04-1.66 11.98-3.89 17.47-6.95 4.7-3.1 3.3101-9.64 3.8-14.44 0.49 0.28 1.48 0.84 1.97 1.12-0.1-0.88-0.3-2.65-0.4-3.54l1.22 0.58c3.61 8.45 7.5801 18.11 16.33 22.39 2.45 0.73 6.3099 1.77 8.13-0.5099-6.9401-1.15-11.44-7.21-14.69-12.93-5.1-9.79-8.3099-20.6-9.25-31.6 1.5801 3.21 3.3201 6.87 7.04 8.02 4.59 1.73 9.24-1.78 11.19-5.79 3.0701-6.45 2.5601-14.92-2.2699-20.38-2.77-3.21-8.03-4-11.36-1.22-3.25 2.16-4.1799 6.1-5.5199 9.51-0.78-10.09 0.3999-20.3 3.11-30.04 2-6.11 4.99-12.77 11.06-15.78 3.61-1.81 7.49-0.16 10.89 1.29-3.12-3.67-7.1-7.4-12.19-7.58-4.91 0.0699-8.78 3.87-11.16 7.84-5.14 8.53-6.58 18.65-7.62 28.39-0.67 11.27-0.11 22.73 2.4 33.76 0.4299-6.05-1.3-12.05-0.41-18.08 0.3 0.13 0.9 0.41 1.2 0.55 0.61 6.12 0.6001 12.29 1.17 18.43 0.6801 3.14-1.55 5.79-1.51 8.91-1.47-1.29-1.3199-3.44-1.88-5.15-4.65-20.74-5.62-43 1.09-63.39 2.62-7.69 7.5701-16.59 16.67-17.21-16.08-11.07-35.79-15.2-55.01-16.27-24.67-1.8-49.41-0.11-74 2.01-17.1 1.41-34.08 3.94-51.05 6.48-2.11 0.62-3.96-0.75-5.2699-2.22 22.27-3.5802 44.8-5.0902 67.26-6.9502z"/>
	<path d="m1540 548.97c9.54-0.55 19.45-2.03 28.68 1.33 3.73 1.31 8.5399 3.31 9.0199 7.82-0.5 3.88-2.5599 7.34-4 10.91-9.1699-2.15-17.83-6.13-26.94-8.4301-39.92-1.37-79.86-2.68-119.78-4.08 25.25-2.36 50.62-3.22 75.92-5.13 12.36-0.8199 24.73-1.6399 37.1-2.4199z"/>
	<path d="m1094.7 553.87c9.4601-0.61 18.91-1.93 28.41-1.79-8.63 5.13-17.43 10.36-24.41 17.67-3.12 3.17-4.35 7.65-3.9399 12.02-27.24-1.35-54.52 0.23-81.75 0.84-31.68 1.08-63.35 2.5-95 4.26-31.35 1.96-62.83 2.54-93.98 6.86-35.8 4.69-71.26 11.59-106.64 18.73-36.32 7.56-72.52 15.71-108.6 24.36-4.28 0.99-8.46 2.43-12.82 3.01 4.17-2.1 8.74-3.25 13.15-4.72 40.85-13.35 82.27-24.93 124.12-34.67 38.43-8.85 77.24-16.22 116.43-20.72 12.4-1.6 24.89-2.41 37.32-3.73 69.23-7.45 138.4-15.41 207.71-22.12z"/>
	<path d="m663.27 560.24c0.56 0.56 0.56 0.56 0 0z"/>
	<path d="m406.29 612.31c3.34 0.16-1.73 2.96 0 0z"/>
	<path d="m1405.6 617.81c0.47 0.15 1.41 0.46 1.89 0.61 6.46 17.95 9.0699 36.94 13.29 55.47-1.6599 0.3-3.2999 0.59-4.9299 0.88-2.35-11.7-4.28-23.49-5.6-35.35-0.9-7.34-3.29-14.37-4.65-21.61z"/>
	<path d="m795.98 635.93c37.96-2.71 76.23-1.78 113.93 3.55 14.41 2 28.98 3.9 42.73 8.89 18.56 6.96 35.68 17.67 50.46 30.8-4.3199-1.95-8.12-4.9-12.5-6.73-3.87-2.1-8.73-1.66-11.87-5.09-17.94-10.41-37.91-17.14-58.27-20.93-39.46-6.58-79.65-8.92-119.6-6.7-34.75 1.98-69.33 7.94-102.53 18.48-37.39 11.75-73.61 28.38-104.97 52.11-27.97 21.02-51.73 47.78-68.52 78.51-11.13 20.33-17.72 42.99-20.06 66.02-3.52 34.49 2.65 68.91 8.5 102.78 1.98 12.85 8.86 24.29 16.6 34.49 10.7 13.86 23.61 25.85 37.12 36.94 16.68 13.67 34.57 25.81 52.98 37.03-7.21-2.2-13.63-6.33-20.33-9.6799-16.37-9.1-31.87-19.79-46.01-32.07-14.03-12.4-27.06-26.17-36.91-42.17-7.25-3.36-15.05-5.42-22.44-8.47-18.02-6.72-36.13-13.31-53.58-21.43-5.82-2.56-11.05-7.53-17.7-7.39-7.64 1.68-14.27 6.52-22.05 7.81-10.55 1.99-21.35-1.02-30.69-5.89-2.49-1.4-5.18-2.78-6.78-5.24-7.02-10.2-12.99-21.07-19.54-31.53 3.59 14.48 13.69 26.01 19.21 39.67-11.26 3.67-22.66 6.93-33.92 10.61-2.96 1.08-6 2.6-9.25 2.02-6.75-1.08-11.93-6.15-16.08-11.23-9.48-12.01-15.39-26.34-20.35-40.68-7.37-22.77-11.79-46.52-12.87-70.43-0.18-11.16-0.58-22.51 1.55-33.5 0.43-0.11 1.27-0.34 1.69-0.45-0.04 2.39-0.42 4.75-0.71 7.1299-2.76 23.07 0.06 46.41 4.45 69.09 4.58 20.78 10.83 41.63 22.38 59.7 4.52 6.66 10.01 13.69 18.09 16 6.5 1.76 12.39-3.21 15.33-8.56 6.63-11.99 7.87-26 8.59-39.42 0.51-4.54-2.25-8.41-3.56-12.54-1.85-4.35-2.48-9.07-4.06-13.49 0.31 9.05 0.57 18.12-0.24 27.16-0.59 2.16 1.47 3.95 0.94 6.08-1.47 6.48-1.7 13.61-5.81 19.15-2.86 4.21-5.63 9.93-11.4 10.34-6.38 0.03-10.98-5.39-14.49-10.08-9.84-14.29-15.03-31.15-19.1-47.85-5.14-22.18-7.49-45.09-6.13-67.85 0.69-7.85 1.91-15.71 4.46-23.18 0.56-0.14 1.68-0.4 2.24-0.54-6.55 18.15-6.37 37.88-4.83 56.86 2.12 21.8 6.5 43.57 14.96 63.85 3.65 8.15 7.76 16.56 14.76 22.37 3.73 3.31 9.91 3.75 13.46-0.06-4.95-3.18-8.59-7.98-11.33-13.11 4.1 3.86 7.57 8.75 13.19 10.53 2.79-3.59 4.04-8.04 5.15-12.36 3.23-13.15 3.29-26.81 2.67-40.25-0.22-10.75-2.17-21.36-3.96-31.93-1.78-10.26-4.44-20.37-7.85-30.2-5.01-11.92-9.45-24.12-12.21-36.77-0.88-4.71-2.47-9.69-0.87-14.42 2.54 1.34 3.51 4.15 4.69 6.59 3.93 8.88 6.66 18.24 9.42 27.53 2.86 11.28 6.28 22.55 7.11 34.21-0.79 10.84 3.37 21.14 6.38 31.36 6.69 19.93 13.9 39.94 25.08 57.87 5.74 9.11 13.56 18.11 24.59 20.43 10.35 2.53 20.47-2.16 29.43-6.86 5.36-2.43 12.04-6 17.62-2.19 7.51 5.39 16.03 9.06 24.44 12.78 18.53 7.89 37.32 15.19 56.38 21.71-6.53-15.19-7.62-31.83-10.16-47.97-24.41-5.37-48.95-10.87-72.32-19.93-5.17-2.19-10.53-4.47-14.59-8.47-0.54-1.8 1.67-2 2.78-2.56 5.81 4.72 12.82 7.57 19.71 10.3 20.79 7.69 42.32 13.24 63.94 18.05-1.44-9.14-3.75-18.16-4.3-27.44-3.36-36.43 4.71-73.39 20.72-106.12 13.73-29.29 35.53-54.13 60.08-74.89 32.88-27.58 71.77-47.52 112.61-60.37 33.86-10.62 68.99-16.91 104.32-19.78z"/>
	<path d="m378.26 657.25c3.7-3.13 7.26-6.74 11.97-8.28-1.09 3.85-3.92 6.82-6.44 9.8-6.32 7.04-13.63 13.35-18.43 21.61-5.57 9.45-11.36 18.78-16.83 28.29-16.83-0.98-34.38-0.2-49.99 6.77-9.71 4.27-18.39 11.84-22.24 21.91-2.03 5.55-3.57 11.28-4.86 17.06-5.44 25.81-7.82 52.23-7.8 78.59-1.4-6.56-1.28-13.32-1.56-19.99-0.27-21.7-0.45-43.66 4.01-65 2.3-11.7 10.05-21.41 18.85-29.07 7.02-5.94 15.38-10.27 24.28-12.63 11.67-3.15 23.85-1.17 35.76-1.89 9.66-16.61 18.5-34.41 33.28-47.17z"/>
	<path d="m827.04 656.86c14.06-0.7 28.07-2.25 42.13-2.93-9.02 5.07-17.77 10.78-25.11 18.13-5.12 5.02-9.81 10.48-15.23 15.18-3.72-0.37-7.09-2.61-10.79-3.32-15.05-3.68-30.6-4.71-46-5.92-33.74-2.78-68.12 2.04-99.7 14.29-29.56 11.37-56.55 28.86-80.09 49.95-10.24 9.08-19.72 18.97-29.13 28.9-1.16 1.3-2.6 2.31-4.19 3.02 0-4.3199 2.48-8.03 4.64-11.57 10.09-15.54 23.55-28.6 37.95-40.12 40.48-32.03 90.29-50.54 140.89-58.81 16.5-2.3 32.95-5.24 49.58-6.39 11.66 1.07 23.39 0.46 35.05-0.41z"/>
	<path d="m921.71 677.77c7.41-4.6 15.49-8.8 24.31-9.61-11.39 2.76-22.11 8.26-30.99 15.94-1.76 1.51-3.45 3.13-5.48 4.29 2.99-4.55 7.84-7.45 12.16-10.62z"/>
	<path d="m384.34 683.38c1.07-3.38 2-7.01 4.51-9.65-3.18 14.6-5.67 29.34-7.4 44.18-0.13-11.54-0.25-23.32 2.89-34.53z"/>
	<path d="m989.62 673.66c8.74 3.29 15.95 9.73 22.43 16.3 3.86 4.5099 8.08 8.99 10.42 14.52-3.02-2.32-5.1299-5.54-7.67-8.32-6.05-6.62-12.47-12.99-19.78-18.22-1.87-1.34-3.85-2.57-5.4-4.28z"/>
	<path d="m1394.4 686.12c12.03-3.61 24.46-5.72 36.61-8.89 3.65 2.89 6.79 6.38 10.63 9.05 0.15-0.8 0.46-2.41 0.61-3.21 8.64-2.28 18.17 1.07 24.21 7.47 5.47 6.14 8.2699 14.24 9.24 22.3-9.92 5.08-19.98 9.87-29.86 15-4.6101 3.6-8.1801 8.53-13.28 11.53-9.41 1.72-19.22 2.12-28.55-0.2-15.7 1.68-31.13 5.65-46.86 7.19-0.46-9.5-1.05-19.3 1.86-28.48 2.03-6.62 8.09-10.71 13.59-14.32 6.92-4.49 14.41-8 21.85-11.54-2e-4 -1.98-0.0302-3.94-0.0502-5.9m10.37 11.72c0.49 9.3 1.01 18.64 2.62 27.83 0.4301 3.48 1.99 7.01 5.26 8.69 5.72 2.98 12.85 3.28 18.91 1.24 4.99-3.73 10.33-8.83 10.29-15.56 0.03-10.29 0.28-20.61-0.6399-30.87-12.11 3.05-24.38 5.46-36.44 8.67z"/>
	<path d="m952.38 682.56c20.42-4.15 42.22 3.65 56.34 18.73 26.73 27.27 28.9 74.06 5.9301 104.31-11.7 15.89-30.69 26.77-50.65 26.7-18.54 0.23-36.45-8.95-48.31-22.98-15.63-18.25-21.66-43.7-17.45-67.21 3.03-17.89 12.33-34.9 26.47-46.4 7.9799-6.53 17.56-11.11 27.67-13.15m5.07 6.1c-9.01 1.13-17.78 4.4-25.23 9.6-13.62 9.23-22.94 23.95-27.02 39.76-3.96 16.4-2.83 34.2 4.17 49.63 6.97 15.94 20.3 29.45 36.99 34.96 15.57 5.53 33.45 2.91 47.24-6 15.22-9.72 25.63-26.12 29.19-43.71 4.7601-21.74-0.44-45.72-14.75-62.91-12.05-14.76-31.45-23.76-50.59-21.33z"/>
	<path d="m897.32 703.17c3.47-5.22 6.85-10.92 12.09-14.54-1.67 2.86-4.16 5.09-6.14 7.73-10.64 13.67-17.23 30.39-18.95 47.62 0.63-14.4 5.49-28.54 13-40.81z"/>
	<path d="m968.96 708.9c13.42 3.69 25.07 13.35 31.35 25.77 5.19 10.24 6.53 22.03 5.74 33.37-0.67 8.53-3.35 17.31-9.45 23.56-7.09 7.62-17.93 10.5-28.06 10.27 4.52-7.09 9.52-14.03 12.29-22.08 5.18-12.92 5.92-27.28 3.56-40.9-2-11.25-7.09-22.06-15.43-29.99z"/>
	<path d="m933.39 713.49c8.23-2.16 17.09 1.28 22.84 7.28 13.96 14.83 15.54 38.85 6.02 56.45-3.5 6.2401-8.75 11.82-15.53 14.44-7.3 2.82-15.99 1.55-22.15-3.27-8.34-6.2-13.15-16.22-14.79-26.3-1.8701-11.91-0.27-24.74 6.2599-35.06 3.9201-6.35 9.9401-11.76 17.35-13.54m-2.01 12.99c-4.08 1.47-7.34 4.67-9.58 8.3-6.15 10.1-5.86 23.82 0.86 33.57 3.01 4.35 7.88 7.78 13.33 7.83 6.3 0.36 11.94-3.86 15.11-9.03 6.6-10.86 5.92-26.05-2.47-35.77-4.1-4.8899-11.19-7.1699-17.25-4.8999z"/>
	<path d="m1584.8 718.9c8-1.54 16.63-1.14 24.17 2.15 6.75 3.12 10.14 10.43 11.66 17.33 1.91 8.47 3.8099 16.99 4.53 25.66-0.0701 1.3 0.58 3.52-1.3101 3.83-10.56 3.47-21.15 7.01-31.21 11.79-4.7101 2.34-9.91 4.6-13.11 8.95-2.02 4.65-1.3401 9.89-0.37 14.71-4-3.34-8.4301-7.57-8.79-13.06 1.0699-3.24 4.63-4.73 7.22-6.63 12.59-7.61 25.88-13.99 39.27-20.06 0.1899-5.2-1.37-10.24-2.17-15.32-1.49-7.58-3.58-16.03-10.15-20.84-5.1101-3.73-11.82-2.89-17.57-1.45-43.88 9.96-87.5 21.02-131.23 31.59-44.91 11.22-89.91 22.09-134.79 33.44-7.03 1.55-13.92 3.76-21.02 4.9 8.55-3.11 17.45-5.17 26.18-7.75 64.91-18.35 129.81-36.78 195.05-53.96 21.13-5.43 42.21-11.14 63.64-15.28z"/>
	<path d="m1638.2 751.67c6.7899 3.13 13.37 8.73 14.96 16.36 1.1801 7.8-4.24 14.52-9.6 19.49-13.91 12.59-29.79 22.76-45.61 32.75-3.27-2.61-6.3501-5.45-9.3-8.4 6.79-4 13.82-7.62 20.55-11.74 10.41-6.33 21.24-12.36 29.86-21.12 4.1799-4.33 7.77-9.84 8.0499-16.02 0.17-3.76-2.86-6.53-5.7799-8.33-1.1-0.93-2.85-1.42-3.13-2.99z"/>
	<path d="m1492 761.08c6.63-1.54 13-4.26 19.83-4.85-20.02 5.9-39.76 12.79-59.76 18.79-21.26 6.72-42.63 13.09-64.11 19.04-43.45 12.46-86.45 26.42-129.35 40.64-31.92 10.74-63.83 21.54-95.28 33.59-6.6 2.73-13.35 5.12-19.71 8.39-10.05 5.11-18.2 13.66-23.26 23.68-2.11 3.56-2.6901 7.87-4.77 11.37-7.02 1.38-14.09 2.54-21.1 3.97 5.36-16.17 14.87-31.21 27.72-42.47 6.1801-4.59 13.46-7.37 20.41-10.58 41.83-17.54 84.9-31.9 128.01-45.9 42.74-13.36 85.72-26.2 129.57-35.45 30.82-5.71 61.55-11.99 91.8-20.22z"/>
	<path d="m1530.8 782.36c9.38 4.21 18.68 8.68 27.78 13.49-1.1899 4.67-2.22 9.39-3.23 14.11-5.67-1.89-10.62-5.41-16.34-7.14-1.77 4.94-3.36 9.95-5.11 14.9-4.89-1.84-9.6001-4.1299-14.58-5.6899-1.6899 4.47-3.0399 9.08-5.14 13.38-5.0399-2.21-9.96-4.74-15.17-6.53-2.28 5.83-4.3401 11.76-6.86 17.49-4.8301-2.66-9.53-5.52-14.25-8.33-4.1801 6.34-7.77 13.04-11.98 19.36-4.5599-3.56-8.33-7.98-12.84-11.59-4.51 6.71-8.96 13.46-13.46 20.18-6.14-3.58-11.82-7.87-17.8-11.69-3.98 7.22-6.61 15.28-11.8 21.77-1.78 1.54-4.25-0.37-5.99-1.14-4.65-2.65-8.6001-6.29-12.97-9.34-2.97 6.1-5.3199 12.6-9.58 17.97-1.02 1.17-2.5 2.6-4.1901 2.03-7.12-2.22-13.08-6.92-19.34-10.8-3.9399 7.1-6.97 14.8-11.95 21.27-1 1.5-2.79 0.36-3.99-0.14-7.0701-3.61-13.33-8.56-19.98-12.85-4.16 6.96-7.4 14.43-10.63 21.86-8.39-1.69-15.73-6.6-23.68-9.59-1.27-0.3-2.46 0.43-3.63 0.72-11.98 4.08-24.15 7.61-35.95 12.17-4.26 2.1-9.11 1.93-13.62 3.08-46.21 9.89-92.28 20.44-138.45 30.52-0.46-2.79-0.75-5.61-0.9-8.43 20.55-4.11 41.1-8.25 61.6-12.6 19.58-4.5 39.44-8.06 58.54-14.4 13.18-4.57 25.8-10.58 38.28-16.79 4.1801-1.77 8.04-4.47 12.49-5.53 7.1 0.59 14.05 2.37 21.13 3.28 0.38-5.7 0.1801-11.86 3.25-16.92 1.08-1.91 3.3101-3.02 5.5-2.56 5.8201 0.8 11.37 2.86 16.85 4.89 2.91-4.8 5.3-10.66 10.58-13.31 6.3999-1.04 11.93 3.19 17.5 5.63 5.46-6.52 10.43-13.84 17.63-18.57 6.8199-2.52 13.2 2.29 18.84 5.52 0.61-4.61 2.71-9.52 7.1799-11.57 5.89-2.83 12.44-0.56 18.44 0.66 2.28-4.11 3.67-9.61 8.2-11.79 7.4-0.57 14.32 2.92 21.26 5-0.1599-3.73-1.12-7.77 0.62-11.27 1.2001-1.96 3.77-1.71 5.76-1.56 7.16 0.74 14.1 2.79 21.08 4.45 0.25-3.6-0.78-8.21 2.24-10.87 5.76-0.69 11.5 0.85 17.18 1.6299 1.5801-3.45 2.16-8.0699 5.6901-10.11 5.63-0.3 11.09 1.51 16.63 2.28 1.47-2.89 2.1699-6.85 5.34-8.37 7.02 0.24 13.63 3.73 20.71 3.35 3.3501-2.7199 2.4802-7.6999 3.1102-11.51z"/>
	<path d="m606.42 819.45c21.13-5.48 43.05-0.93 64.02 3.02 4.57 0.16 8.34 3.98 13.09 2.77 1.3199 2.28 3.97 2.92 6.21 3.97 20.77 8.93 38.44 24.15 51.9 42.19 12.81 17.1 22.08 36.62 29.05 56.76 12.61 38.86 24 78.13 37.42 116.73 6.95 19.43 14.15 38.87 23.89 57.11 4.48 8.11 9.34 16.21 16.04 22.71 1.9-0.4299 3.82-0.72 5.78-0.59-0.08 1.65-1.28 2.91-1.53 4.51 8.72 5.3199 18.85 7.5599 28.77 9.4301 20.81 3.22 41.92 4.1 62.96 3.86 51.15-1.02 102.22-7.54 151.9-19.83 19.03-4.62 37.66-10.71 56.24-16.86 44.51-14.45 89.09-28.69 133.45-43.62 35.55-12.2 71.04-24.69 105.68-39.31 40.59-17.5 80.02-37.64 118.28-59.75 24.78-14.61 49.95-29.17 71.16-48.82 4.91-4.02 8.74-9.2 13.74-13.09-2.89 5.15-7.5599 8.99-11.35 13.45-11.75 12.44-24.84 23.69-39.5 32.57-34.06 20.96-69.41 39.75-105 57.96-20.79 10.43-41.62 20.83-63.06 29.86-16.05 6.12-32.33 11.63-48.46 17.53-42.32 15.11-84.67 30.15-127.11 44.94-22.42 7.67-44.77 15.55-67.42 22.53-18.54 5.24-37.45 8.97-56.34 12.7-47.33 8.5599-95.13 15.35-143.25 16.97-15.69 0.38-31.48 0.23-47.03-2.17-8.59-1.39-17.41-3.25-24.79-8.11-4.45-3.05-8.49-6.65-12.34-10.4-22.29 6.36-44.48 13.11-66.73 19.63-8.33 2.73-17.01 4.49-25.15 7.8101-8.02 4.4199-17.49 6.34-26.55 4.5399-14.46-2.72-26.94-11.45-37.46-21.36-15.07-14.39-26.98-31.74-37.25-49.78-19.52-34.87-32.98-72.9-42.15-111.73-11.48-49.39-16.46-100.88-9.04-151.27-6.02 2.2-11.5 5.71-16.38 9.83-3.75 3.29-7.72 6.69-9.54 11.49-5.78 13.65-6.66 28.74-6.92 43.37-0.21 29 4.63 57.79 11.28 85.93 6.83 29.95 18.52 59.06 36.35 84.19-5.47-3.5699-9.48-8.91-13.31-14.09-13.39-19.04-20.61-41.59-25.79-64.06-5.06-24.77-10.53-49.51-13.45-74.65-1.82-18.51-3.15-37.81 2.86-55.73 5.4801-16.46 20.09-29.09 36.83-33.14m20.79 1.8c-11.59 20-14.59 43.61-15.79 66.32-1.22 31.88 2.88 63.8 10.28 94.77 8.87 35.64 21.92 70.76 42.73 101.25 9.64 13.73 21.02 27.06 36.2 34.79 9.35 4.96 21.22 6.04 30.75 0.99 7.28-3.75 12.75-10.19 16.88-17.13 8.86-15.25 12.56-32.89 14.54-50.24-2.21 5.4-2.48 11.42-5.07 16.69-3.47 7.5701-9.19 14.62-17.14 17.68-7.16 2.04-13.78-2.61-19.15-6.77-6.47-5.53-12.56-11.69-17.29-18.78 8.47 7.03 16.84 14.56 27.06 19.01 3.83 1.62 8.21 2.7201 12.32 1.61 3.75-1.8099 5.92-5.6 7.9399-9.0499 6.07-11.76 9.19-24.72 12.52-37.44 0.77-13.54 0-27.14-1.22-40.64-4.68-44.49-16.18-88.62-36.49-128.61 3.7599 2.85 7.74 6 9.4399 10.58 18.57 42.53 29.33 88.42 32.08 134.73 1 22.94 0.25 46.19-5.1 68.61-3.94 15.39-9.75 31.34-21.9 42.2-7.78 7.1001-18.99 9.92-29.22 7.4701-13.22-3.05-24.11-11.98-33.29-21.56-14.41-15.04-24.68-33.34-34.31-51.62 1.97 5.1801 4.58 10.09 7.01 15.07 9.62 18.56 20.61 36.62 34.68 52.18 9.17 10.04 19.68 19.28 32.28 24.75 9.56 4.21 20.82 5.21 30.69 1.48 9-3.52 16.3-10.43 21.67-18.33 8.79-12.8 13.5-27.86 16.95-42.86 4.68-23.56 6.28-47.75 4.88-71.71-3.74-12.63-7.55-25.25-10.93-37.98-9.75-34.61-20.07-70.05-41.14-99.73-15.82-22.67-38.76-40.4-64.96-49.37-11.56 7.46-16.25 21.15-19.46 33.83-2.94 13.33-4.64 26.94-5.05 40.59-0.28 3.66 0.02 7.4-0.86 11-0.78-10-0.56-20.03-0.48-30.04 0.11-8.79 1.5-17.52 3.76-26 2.86-11.41 7.79-22.47 15.6-31.37-13.23-4.6699-27.37-6.9899-41.41-6.3699m-16.77 3.02c-4.46 23.26-5.63 47.09-4.42 70.72 0.19 7.41 0.3 14.89 1.67 22.19 0.21-6.06 0.03-12.13-0.14-18.19-0.46-26.11 2.45-52.74 12.5-77.03-3.27 0.44-6.53 1.1-9.61 2.31m186.94 208.65c0.12 10.39-0.31 20.77-1.11 31.12 0.75 8.36 2.26 16.74 4.99 24.7 2.64 7.38 9.37 11.98 14.73 17.28 7.86 7.15 16.08 13.88 24.23 20.69 1.83-0.39 3.64-0.8999 5.47-1.37-23.35-26.38-36.5-59.72-48.31-92.42z"/>
	<path d="m1611.4 817.82c2.6 6.7 2.96 14.14 2.51 21.25-0.51 9.13-4.74 18.09-11.94 23.82-14.21 11.82-29.86 21.73-45.38 31.7-26.55 16.55-53.39 32.79-81.63 46.34-19.74 8.46-40.08 15.43-60.29 22.71-43.3 15.12-87 29.13-131.06 41.89-53.88 15.37-108.3 29.28-163.66 38.2-17.81 2.1801-35.54-4.6-49.93-14.73-8.02-5.85-15.69-12.81-20.14-21.83-2.59-4.82-1.92-11.32 2.41-14.91 5.4099-4.47 12.95-4.59 19.63-4.26 2.87 14.32 9.38 28.81 21.66 37.44 9.63 6.8201 21.92 8.8201 33.49 7.55 21.19-2.2 42.04-6.71 62.86-11.12 46.36-10.42 92.3-22.65 137.86-36.12 43.8-13.09 87.34-27.19 129.83-44.09 35.61-14.53 70.67-30.95 102.78-52.26 14.09-9.59 27.83-20.03 39.1-32.92 3.33-4.08 6.8-8.28 8.54-13.33 2.45-8.22 2.86-16.83 3.36-25.33z"/>
	<path d="m301.44 827.41c1.48-0.64 3.42-0.64 4.67 0.52 2.96 2.48 4.79 6.04 6.04 9.64 1.08 3.76 3.95 6.74 4.57 10.67 1.29 3.94 0.08 8.04 0.61 12.06 0.73 6.05 0.48 12.18-0.1 18.23-0.72 3.21-1.89 7.16-5.39 8.29-3.24-0.32-5.28-3.23-6.79-5.81-6.56-12.18-8.19-26.39-7.86-40.03 0.32-4.67 0.53-10.21 4.25-13.57m-1.46 3.7c-3.02 6.19-2.12 13.29-2.22 19.95 0.96 10.08 2.47 20.5 7.77 29.35 1.34 2.04 2.92 4.41 5.55 4.79 2.99 0.16 4.2-3.18 5.05-5.47 1.23-5.77 1.34-11.71 1.09-17.58-1.06 0.37-2.12 0.71-3.2 1-1.72-2.17-3.06-4.66-3.61-7.38-1.34-5.8-2.52-12.58 1.43-17.65-1.39-3.59-3.4-7.26-6.72-9.38-2.03-1.52-4.32 0.5-5.14 2.37z"/>
	<path d="m1428.9 931.92c37.39-15.07 74.12-31.83 110.14-49.91-15.73 12.53-32.35 24.04-49.61 34.4-8.5601 5-17.38 9.6201-26.58 13.33-9.48 3.59-19.32 6.04-28.93 9.19-51.81 16.44-102.94 34.95-153.83 54.05-20.43 6.87-41.24 12.57-62.09 18.02-26.04 6.49-52.21 12.86-78.92 15.95-6.21 0.5-12.61 1.2001-18.74-0.3099-12.8-4.16-22.65-14.85-28.08-26.91-1.28-3-2.84-6.84-0.33-9.65 8.35 3.9 18.25 5.23 24.96 12.05 3.66 3.31 6.3199 7.74 10.57 10.38 19.28 4.56 39.25 0.8 58.14-3.9 43.39-11.12 85.96-25.15 128.75-38.33 22.51-7.13 45.05-14.17 67.55-21.34 16-4.7101 31.57-10.73 47-17.02z"/>
	<path d="m666.87 907.82c2.46-4.94 7.25-9.47 13.14-9.06 7.67 0.58 13.48 6.49 18.03 12.17 2.88 4.04 6.1 8.1 7.8 12.8-1.83 1.5-4.88 0.67-6.42 2.72-2.01 2.35-3.08 5.45-3.1 8.55-0.12 6.05-0.52 12.26 1.32 18.13 2.03 6.69 4.31 13.77 9.62 18.64 1.87 1.77 4.74 3.18 7.25 1.85 2.08-1.48 3.13-3.9 4.65-5.86 2.58 10.66 2.17 21.94 0.45 32.73-1.27 6.99-3.4 14.37-8.73 19.4-4.01 3.86-10.47 4-15.16 1.32-7.33-4.09-12.47-11.07-16.81-18.06-10.89-18.81-16.4-40.46-17.56-62.07-0.35-11.26 0.49-22.99 5.52-33.26m6.13-3.8c-6.13 4.98-8.01 13.16-9.29 20.59-2.92 22.94 1.83 46.49 11.06 67.55 3.99 8.48 8.77 16.9 15.93 23.14 4.04 3.46 9.62 6.17 15 4.4 5.79-1.98 8.73-7.96 10.68-13.32 3.68-11.44 3.21-23.67 2.33-35.5-2.01 2.2-4.43 5.76-7.9 4.28-6.38-2.8199-9.45-9.7599-11.78-15.91-3.42-8.48-4.2-17.76-3.27-26.79 0.66-4.38 3.29-9.1 8.18-9.4901-4.07-7.47-9.22-14.77-16.61-19.27-4.29-2.6999-10.29-3.0199-14.33 0.3201z"/>
	<path d="m705.68 925.51c2.98-0.37 4.57 2.6 6.15 4.63 5.4 8.92 8.43 19.41 7.91 29.88-0.24 2.35 0.36 5.08-1.39 7-1.98-9.75-3.98-19.55-7.5-28.89-1.55-4.28-3.64-8.34-5.17-12.62m3.03 2.74c3.44 9.49 7.23 18.95 9.05 28.95 0.33 1.37 0.24 3.02 1.33 4.12 0.61-8.68-1.16-17.47-4.9301-25.3-1.4199-2.82-2.6499-6.03-5.4499-7.77z"/>
	<path d="m828.34 1032.1c3.3 15.33 9.03 30.17 16.89 43.74 9.29 15.87 22.83 30.1 40.37 36.6 10.56 4.4 22.21 3.7899 33.39 4.74 49.18 1.63 98.55-0.61 147.27-7.59 22.67-3.25 44.97-8.5601 67.16-14.11 57.43-14.3 114.02-31.9 169.55-52.34 3.9301-1.51 7.8401-3.1799 12-3.98-37.55 15.13-75.77 28.65-114.12 41.67-42.12 13.99-84.56 27.08-127.47 38.44-23.67 6.11-47.84 10.42-72.26 11.95-12.04 0.8099-24.12 0.95-36.15 1.97-12.67 0.72-25.39 1.83-38.06 0.61-12.22-0.91-24.16-3.86-36.01-6.83-18.54-5.39-33.22-19.4-43.75-35.11-5.83-9.0099-11.27-18.56-13.85-29.05-1.27-10.3-4.38-20.33-4.96-30.71z"/>
</svg>